<svg aria-roledescription="flowchart-v2" role="graphics-document document" viewBox="-43 -8 294.7421875 717.5" style="max-width: 294.742px; background-color: white;" xmlns:xlink="http://www.w3.org/1999/xlink" xmlns="http://www.w3.org/2000/svg" width="100%" id="mermaid-1777845562450"><style>#mermaid-1777845562450{font-family:"trebuchet ms",verdana,arial,sans-serif;font-size:16px;fill:#333;}#mermaid-1777845562450 .error-icon{fill:#552222;}#mermaid-1777845562450 .error-text{fill:#552222;stroke:#552222;}#mermaid-1777845562450 .edge-thickness-normal{stroke-width:2px;}#mermaid-1777845562450 .edge-thickness-thick{stroke-width:3.5px;}#mermaid-1777845562450 .edge-pattern-solid{stroke-dasharray:0;}#mermaid-1777845562450 .edge-pattern-dashed{stroke-dasharray:3;}#mermaid-1777845562450 .edge-pattern-dotted{stroke-dasharray:2;}#mermaid-1777845562450 .marker{fill:#333333;stroke:#333333;}#mermaid-1777845562450 .marker.cross{stroke:#333333;}#mermaid-1777845562450 svg{font-family:"trebuchet ms",verdana,arial,sans-serif;font-size:16px;}#mermaid-1777845562450 .label{font-family:"trebuchet ms",verdana,arial,sans-serif;color:#333;}#mermaid-1777845562450 .cluster-label text{fill:#333;}#mermaid-1777845562450 .cluster-label span{color:#333;}#mermaid-1777845562450 .label text,#mermaid-1777845562450 span{fill:#333;color:#333;}#mermaid-1777845562450 .node rect,#mermaid-1777845562450 .node circle,#mermaid-1777845562450 .node ellipse,#mermaid-1777845562450 .node polygon,#mermaid-1777845562450 .node path{fill:#ECECFF;stroke:#9370DB;stroke-width:1px;}#mermaid-1777845562450 .node .label{text-align:center;}#mermaid-1777845562450 .node.clickable{cursor:pointer;}#mermaid-1777845562450 .arrowheadPath{fill:#333333;}#mermaid-1777845562450 .edgePath .path{stroke:#333333;stroke-width:2.0px;}#mermaid-1777845562450 .flowchart-link{stroke:#333333;fill:none;}#mermaid-1777845562450 .edgeLabel{background-color:#e8e8e8;text-align:center;}#mermaid-1777845562450 .edgeLabel rect{opacity:0.5;background-color:#e8e8e8;fill:#e8e8e8;}#mermaid-1777845562450 .cluster rect{fill:#ffffde;stroke:#aaaa33;stroke-width:1px;}#mermaid-1777845562450 .cluster text{fill:#333;}#mermaid-1777845562450 .cluster span{color:#333;}#mermaid-1777845562450 div.mermaidTooltip{position:absolute;text-align:center;max-width:200px;padding:2px;font-family:"trebuchet ms",verdana,arial,sans-serif;font-size:12px;background:hsl(80, 100%, 96.2745098039%);border:1px solid #aaaa33;border-radius:2px;pointer-events:none;z-index:100;}#mermaid-1777845562450 .flowchartTitleText{text-anchor:middle;font-size:18px;fill:#333;}#mermaid-1777845562450 :root{--mermaid-font-family:"trebuchet ms",verdana,arial,sans-serif;}</style><g><marker orient="auto" markerHeight="12" markerWidth="12" markerUnits="userSpaceOnUse" refY="5" refX="10" viewBox="0 0 12 20" class="marker flowchart" id="flowchart-pointEnd"><path style="stroke-width: 1; stroke-dasharray: 1, 0;" class="arrowMarkerPath" d="M 0 0 L 10 5 L 0 10 z"/></marker><marker orient="auto" markerHeight="12" markerWidth="12" markerUnits="userSpaceOnUse" refY="5" refX="0" viewBox="0 0 10 10" class="marker flowchart" id="flowchart-pointStart"><path style="stroke-width: 1; stroke-dasharray: 1, 0;" class="arrowMarkerPath" d="M 0 5 L 10 10 L 10 0 z"/></marker><marker orient="auto" markerHeight="11" markerWidth="11" markerUnits="userSpaceOnUse" refY="5" refX="11" viewBox="0 0 10 10" class="marker flowchart" id="flowchart-circleEnd"><circle style="stroke-width: 1; stroke-dasharray: 1, 0;" class="arrowMarkerPath" r="5" cy="5" cx="5"/></marker><marker orient="auto" markerHeight="11" markerWidth="11" markerUnits="userSpaceOnUse" refY="5" refX="-1" viewBox="0 0 10 10" class="marker flowchart" id="flowchart-circleStart"><circle style="stroke-width: 1; stroke-dasharray: 1, 0;" class="arrowMarkerPath" r="5" cy="5" cx="5"/></marker><marker orient="auto" markerHeight="11" markerWidth="11" markerUnits="userSpaceOnUse" refY="5.2" refX="12" viewBox="0 0 11 11" class="marker cross flowchart" id="flowchart-crossEnd"><path style="stroke-width: 2; stroke-dasharray: 1, 0;" class="arrowMarkerPath" d="M 1,1 l 9,9 M 10,1 l -9,9"/></marker><marker orient="auto" markerHeight="11" markerWidth="11" markerUnits="userSpaceOnUse" refY="5.2" refX="-1" viewBox="0 0 11 11" class="marker cross flowchart" id="flowchart-crossStart"><path style="stroke-width: 2; stroke-dasharray: 1, 0;" class="arrowMarkerPath" d="M 1,1 l 9,9 M 10,1 l -9,9"/></marker><g class="root"><g class="clusters"/><g class="edgePaths"><path marker-end="url(#flowchart-pointEnd)" style="fill:none;" class="edge-thickness-normal edge-pattern-solid flowchart-link LS-O LE-IIP" id="L-O-IIP-0" d="M123.609375,105.07371682655277L140.05598958333334,111.22809735546065C156.50260416666666,117.3824778843685,189.39583333333334,129.69123894218424,205.84244791666666,140.0122861377588C222.2890625,150.33333333333334,222.2890625,158.66666666666666,222.2890625,162.83333333333334L222.2890625,167"/><path marker-end="url(#flowchart-pointEnd)" style="fill:none;" class="edge-thickness-normal edge-pattern-solid flowchart-link LS-O LE-AKV" id="L-O-AKV-0" d="M123.609375,110.01435152374202L130.64713541666666,115.34529293645168C137.68489583333334,120.67623434916135,151.76041666666666,131.33811717458067,158.79817708333334,143.62739192062367C165.8359375,155.91666666666666,165.8359375,169.83333333333334,165.8359375,183.75C165.8359375,197.66666666666666,165.8359375,211.58333333333334,165.8359375,225.5C165.8359375,239.41666666666666,165.8359375,253.33333333333334,165.8359375,267.25C165.8359375,281.1666666666667,165.8359375,295.0833333333333,168.6529597055888,306.2083333333333C171.46998191117765,317.3333333333333,177.10402632235528,325.6666666666667,179.9210485279441,329.8333333333333L182.73807073353294,334"/><path marker-end="url(#flowchart-pointEnd)" style="fill:none;" class="edge-thickness-normal edge-pattern-solid flowchart-link LS-O LE-CBS" id="L-O-CBS-0" d="M97.828125,103.94330366716706L75.69010416666667,110.28608638930588C53.552083333333336,116.62886911144471,9.276041666666666,129.31443455572236,-12.861979166666666,142.6155506111945C-35,155.91666666666666,-35,169.83333333333334,-35,183.75C-35,197.66666666666666,-35,211.58333333333334,-35,225.5C-35,239.41666666666666,-35,253.33333333333334,-35,267.25C-35,281.1666666666667,-35,295.0833333333333,-35,309C-35,322.9166666666667,-35,336.8333333333333,-35,350.75C-35,364.6666666666667,-35,378.5833333333333,-35,392.5C-35,406.4166666666667,-35,420.3333333333333,-35,434.25C-35,448.1666666666667,-35,462.0833333333333,-35,476C-35,489.9166666666667,-35,503.8333333333333,-35,517.75C-35,531.6666666666666,-35,545.5833333333334,-17.002604166666668,558.3825000759117C0.9947916666666666,571.18166681849,36.989583333333336,582.8633336369802,54.986979166666664,588.7041670462253L72.984375,594.5450004554702"/><path marker-end="url(#flowchart-pointEnd)" style="fill:none;" class="edge-thickness-normal edge-pattern-solid flowchart-link LS-O LE-NSS" id="L-O-NSS-0" d="M97.828125,106.2021752278913L84.90690104166667,112.16847935657609C71.98567708333333,118.13478348526087,46.143229166666664,130.06739174263043,33.222005208333336,140.20036253798187C20.30078125,150.33333333333334,20.30078125,158.66666666666666,20.30078125,162.83333333333334L20.30078125,167"/><path marker-end="url(#flowchart-pointEnd)" style="fill:none;" class="edge-thickness-normal edge-pattern-solid flowchart-link LS-C LE-O" id="L-C-O-0" d="M110.71875,33.5L110.71875,37.666666666666664C110.71875,41.833333333333336,110.71875,50.166666666666664,110.71875,58.5C110.71875,66.83333333333333,110.71875,75.16666666666667,110.71875,79.33333333333333L110.71875,83.5"/><path marker-end="url(#flowchart-pointEnd)" style="fill:none;" class="edge-thickness-normal edge-pattern-solid flowchart-link LS-IIP LE-KYC" id="L-IIP-KYC-0" d="M222.2890625,200.5L222.2890625,204.66666666666666C222.2890625,208.83333333333334,222.2890625,217.16666666666666,222.2890625,225.5C222.2890625,233.83333333333334,222.2890625,242.16666666666666,222.2890625,246.33333333333334L222.2890625,250.5"/><path marker-end="url(#flowchart-pointEnd)" style="fill:none;" class="edge-thickness-normal edge-pattern-solid flowchart-link LS-KYC LE-AKV" id="L-KYC-AKV-0" d="M222.2890625,284L222.2890625,288.1666666666667C222.2890625,292.3333333333333,222.2890625,300.6666666666667,219.4720402944112,309C216.65501808882235,317.3333333333333,211.02097367764472,325.6666666666667,208.2039514720559,329.8333333333333L205.38692926646706,334"/><path marker-end="url(#flowchart-pointEnd)" style="fill:none;" class="edge-thickness-normal edge-pattern-solid flowchart-link LS-AKV LE-AMS" id="L-AKV-AMS-0" d="M194.0625,367.5L194.0625,371.6666666666667C194.0625,375.8333333333333,194.0625,384.1666666666667,194.0625,392.5C194.0625,400.8333333333333,194.0625,409.1666666666667,194.0625,413.3333333333333L194.0625,417.5"/><path marker-end="url(#flowchart-pointEnd)" style="fill:none;" class="edge-thickness-normal edge-pattern-solid flowchart-link LS-AMS LE-DM" id="L-AMS-DM-0" d="M194.0625,451L194.0625,455.1666666666667C194.0625,459.3333333333333,194.0625,467.6666666666667,194.0625,476C194.0625,484.3333333333333,194.0625,492.6666666666667,194.0625,496.8333333333333L194.0625,501"/><path marker-end="url(#flowchart-pointEnd)" style="fill:none;" class="edge-thickness-normal edge-pattern-solid flowchart-link LS-DM LE-CBS" id="L-DM-CBS-0" d="M194.0625,534.5L194.0625,538.6666666666666C194.0625,542.8333333333334,194.0625,551.1666666666666,180.76953125,560.8600478468899C167.4765625,570.5534290271132,140.890625,581.6068580542264,127.59765625,587.1335725677831L114.3046875,592.6602870813397"/><path marker-end="url(#flowchart-pointEnd)" style="fill:none;" class="edge-thickness-normal edge-pattern-solid flowchart-link LS-CBS LE-NS" id="L-CBS-NS-0" d="M93.64453125,618L93.64453125,622.1666666666666C93.64453125,626.3333333333334,93.64453125,634.6666666666666,93.64453125,643C93.64453125,651.3333333333334,93.64453125,659.6666666666666,93.64453125,663.8333333333334L93.64453125,668"/><path marker-end="url(#flowchart-pointEnd)" style="fill:none;" class="edge-thickness-normal edge-pattern-solid flowchart-link LS-O LE-ALS" id="L-O-ALS-0" d="M110.71875,117L110.71875,121.16666666666667C110.71875,125.33333333333333,110.71875,133.66666666666666,110.71875,142C110.71875,150.33333333333334,110.71875,158.66666666666666,110.71875,162.83333333333334L110.71875,167"/></g><g class="edgeLabels"><g class="edgeLabel"><g transform="translate(0, 0)" class="label"><foreignObject height="0" width="0"><div style="display: inline-block; white-space: nowrap;" xmlns="http://www.w3.org/1999/xhtml"><span class="edgeLabel"></span></div></foreignObject></g></g><g class="edgeLabel"><g transform="translate(0, 0)" class="label"><foreignObject height="0" width="0"><div style="display: inline-block; white-space: nowrap;" xmlns="http://www.w3.org/1999/xhtml"><span class="edgeLabel"></span></div></foreignObject></g></g><g class="edgeLabel"><g transform="translate(0, 0)" class="label"><foreignObject height="0" width="0"><div style="display: inline-block; white-space: nowrap;" xmlns="http://www.w3.org/1999/xhtml"><span class="edgeLabel"></span></div></foreignObject></g></g><g class="edgeLabel"><g transform="translate(0, 0)" class="label"><foreignObject height="0" width="0"><div style="display: inline-block; white-space: nowrap;" xmlns="http://www.w3.org/1999/xhtml"><span class="edgeLabel"></span></div></foreignObject></g></g><g class="edgeLabel"><g transform="translate(0, 0)" class="label"><foreignObject height="0" width="0"><div style="display: inline-block; white-space: nowrap;" xmlns="http://www.w3.org/1999/xhtml"><span class="edgeLabel"></span></div></foreignObject></g></g><g class="edgeLabel"><g transform="translate(0, 0)" class="label"><foreignObject height="0" width="0"><div style="display: inline-block; white-space: nowrap;" xmlns="http://www.w3.org/1999/xhtml"><span class="edgeLabel"></span></div></foreignObject></g></g><g class="edgeLabel"><g transform="translate(0, 0)" class="label"><foreignObject height="0" width="0"><div style="display: inline-block; white-space: nowrap;" xmlns="http://www.w3.org/1999/xhtml"><span class="edgeLabel"></span></div></foreignObject></g></g><g class="edgeLabel"><g transform="translate(0, 0)" class="label"><foreignObject height="0" width="0"><div style="display: inline-block; white-space: nowrap;" xmlns="http://www.w3.org/1999/xhtml"><span class="edgeLabel"></span></div></foreignObject></g></g><g class="edgeLabel"><g transform="translate(0, 0)" class="label"><foreignObject height="0" width="0"><div style="display: inline-block; white-space: nowrap;" xmlns="http://www.w3.org/1999/xhtml"><span class="edgeLabel"></span></div></foreignObject></g></g><g class="edgeLabel"><g transform="translate(0, 0)" class="label"><foreignObject height="0" width="0"><div style="display: inline-block; white-space: nowrap;" xmlns="http://www.w3.org/1999/xhtml"><span class="edgeLabel"></span></div></foreignObject></g></g><g class="edgeLabel"><g transform="translate(0, 0)" class="label"><foreignObject height="0" width="0"><div style="display: inline-block; white-space: nowrap;" xmlns="http://www.w3.org/1999/xhtml"><span class="edgeLabel"></span></div></foreignObject></g></g><g class="edgeLabel"><g transform="translate(0, 0)" class="label"><foreignObject height="0" width="0"><div style="display: inline-block; white-space: nowrap;" xmlns="http://www.w3.org/1999/xhtml"><span class="edgeLabel"></span></div></foreignObject></g></g></g><g class="nodes"><g transform="translate(110.71875, 100.25)" id="flowchart-O-48" class="node default default"><rect height="33.5" width="25.78125" y="-16.75" x="-12.890625" ry="0" rx="0" style="" class="basic label-container"/><g transform="translate(-5.390625, -9.25)" style="" class="label"><foreignObject height="18.5" width="10.78125"><div style="display: inline-block; white-space: nowrap;" xmlns="http://www.w3.org/1999/xhtml"><span class="nodeLabel">O</span></div></foreignObject></g></g><g transform="translate(222.2890625, 183.75)" id="flowchart-IIP-49" class="node default default"><rect height="33.5" width="32.828125" y="-16.75" x="-16.4140625" ry="0" rx="0" style="" class="basic label-container"/><g transform="translate(-8.9140625, -9.25)" style="" class="label"><foreignObject height="18.5" width="17.828125"><div style="display: inline-block; white-space: nowrap;" xmlns="http://www.w3.org/1999/xhtml"><span class="nodeLabel">IIP</span></div></foreignObject></g></g><g transform="translate(194.0625, 350.75)" id="flowchart-AKV-51" class="node default default"><rect height="33.5" width="43.046875" y="-16.75" x="-21.5234375" ry="0" rx="0" style="" class="basic label-container"/><g transform="translate(-14.0234375, -9.25)" style="" class="label"><foreignObject height="18.5" width="28.046875"><div style="display: inline-block; white-space: nowrap;" xmlns="http://www.w3.org/1999/xhtml"><span class="nodeLabel">AKV</span></div></foreignObject></g></g><g transform="translate(93.64453125, 601.25)" id="flowchart-CBS-53" class="node default default"><rect height="33.5" width="41.3203125" y="-16.75" x="-20.66015625" ry="0" rx="0" style="" class="basic label-container"/><g transform="translate(-13.16015625, -9.25)" style="" class="label"><foreignObject height="18.5" width="26.3203125"><div style="display: inline-block; white-space: nowrap;" xmlns="http://www.w3.org/1999/xhtml"><span class="nodeLabel">CBS</span></div></foreignObject></g></g><g transform="translate(20.30078125, 183.75)" id="flowchart-NSS-55" class="node default default"><rect height="33.5" width="40.6015625" y="-16.75" x="-20.30078125" ry="0" rx="0" style="" class="basic label-container"/><g transform="translate(-12.80078125, -9.25)" style="" class="label"><foreignObject height="18.5" width="25.6015625"><div style="display: inline-block; white-space: nowrap;" xmlns="http://www.w3.org/1999/xhtml"><span class="nodeLabel">NSS</span></div></foreignObject></g></g><g transform="translate(110.71875, 16.75)" id="flowchart-C-56" class="node default default"><rect height="33.5" width="24.5703125" y="-16.75" x="-12.28515625" ry="0" rx="0" style="" class="basic label-container"/><g transform="translate(-4.78515625, -9.25)" style="" class="label"><foreignObject height="18.5" width="9.5703125"><div style="display: inline-block; white-space: nowrap;" xmlns="http://www.w3.org/1999/xhtml"><span class="nodeLabel">C</span></div></foreignObject></g></g><g transform="translate(222.2890625, 267.25)" id="flowchart-KYC-59" class="node default default"><rect height="33.5" width="42.90625" y="-16.75" x="-21.453125" ry="0" rx="0" style="" class="basic label-container"/><g transform="translate(-13.953125, -9.25)" style="" class="label"><foreignObject height="18.5" width="27.90625"><div style="display: inline-block; white-space: nowrap;" xmlns="http://www.w3.org/1999/xhtml"><span class="nodeLabel">KYC</span></div></foreignObject></g></g><g transform="translate(194.0625, 434.25)" id="flowchart-AMS-63" class="node default default"><rect height="33.5" width="43.484375" y="-16.75" x="-21.7421875" ry="0" rx="0" style="" class="basic label-container"/><g transform="translate(-14.2421875, -9.25)" style="" class="label"><foreignObject height="18.5" width="28.484375"><div style="display: inline-block; white-space: nowrap;" xmlns="http://www.w3.org/1999/xhtml"><span class="nodeLabel">AMS</span></div></foreignObject></g></g><g transform="translate(194.0625, 517.75)" id="flowchart-DM-65" class="node default default"><rect height="33.5" width="36.1640625" y="-16.75" x="-18.08203125" ry="0" rx="0" style="" class="basic label-container"/><g transform="translate(-10.58203125, -9.25)" style="" class="label"><foreignObject height="18.5" width="21.1640625"><div style="display: inline-block; white-space: nowrap;" xmlns="http://www.w3.org/1999/xhtml"><span class="nodeLabel">DM</span></div></foreignObject></g></g><g transform="translate(93.64453125, 684.75)" id="flowchart-NS-69" class="node default default"><rect height="33.5" width="32.90625" y="-16.75" x="-16.453125" ry="0" rx="0" style="" class="basic label-container"/><g transform="translate(-8.953125, -9.25)" style="" class="label"><foreignObject height="18.5" width="17.90625"><div style="display: inline-block; white-space: nowrap;" xmlns="http://www.w3.org/1999/xhtml"><span class="nodeLabel">NS</span></div></foreignObject></g></g><g transform="translate(110.71875, 183.75)" id="flowchart-ALS-71" class="node default default"><rect height="33.5" width="40.234375" y="-16.75" x="-20.1171875" ry="0" rx="0" style="" class="basic label-container"/><g transform="translate(-12.6171875, -9.25)" style="" class="label"><foreignObject height="18.5" width="25.234375"><div style="display: inline-block; white-space: nowrap;" xmlns="http://www.w3.org/1999/xhtml"><span class="nodeLabel">ALS</span></div></foreignObject></g></g></g></g></g></svg>