<svg aria-roledescription="flowchart-v2" role="graphics-document document" viewBox="-8 -8 727.787109375 865.5" style="max-width: 727.787px; background-color: white;" xmlns:xlink="http://www.w3.org/1999/xlink" xmlns="http://www.w3.org/2000/svg" width="100%" id="mermaid-1777845614241"><style>#mermaid-1777845614241{font-family:"trebuchet ms",verdana,arial,sans-serif;font-size:16px;fill:#333;}#mermaid-1777845614241 .error-icon{fill:#552222;}#mermaid-1777845614241 .error-text{fill:#552222;stroke:#552222;}#mermaid-1777845614241 .edge-thickness-normal{stroke-width:2px;}#mermaid-1777845614241 .edge-thickness-thick{stroke-width:3.5px;}#mermaid-1777845614241 .edge-pattern-solid{stroke-dasharray:0;}#mermaid-1777845614241 .edge-pattern-dashed{stroke-dasharray:3;}#mermaid-1777845614241 .edge-pattern-dotted{stroke-dasharray:2;}#mermaid-1777845614241 .marker{fill:#333333;stroke:#333333;}#mermaid-1777845614241 .marker.cross{stroke:#333333;}#mermaid-1777845614241 svg{font-family:"trebuchet ms",verdana,arial,sans-serif;font-size:16px;}#mermaid-1777845614241 .label{font-family:"trebuchet ms",verdana,arial,sans-serif;color:#333;}#mermaid-1777845614241 .cluster-label text{fill:#333;}#mermaid-1777845614241 .cluster-label span{color:#333;}#mermaid-1777845614241 .label text,#mermaid-1777845614241 span{fill:#333;color:#333;}#mermaid-1777845614241 .node rect,#mermaid-1777845614241 .node circle,#mermaid-1777845614241 .node ellipse,#mermaid-1777845614241 .node polygon,#mermaid-1777845614241 .node path{fill:#ECECFF;stroke:#9370DB;stroke-width:1px;}#mermaid-1777845614241 .node .label{text-align:center;}#mermaid-1777845614241 .node.clickable{cursor:pointer;}#mermaid-1777845614241 .arrowheadPath{fill:#333333;}#mermaid-1777845614241 .edgePath .path{stroke:#333333;stroke-width:2.0px;}#mermaid-1777845614241 .flowchart-link{stroke:#333333;fill:none;}#mermaid-1777845614241 .edgeLabel{background-color:#e8e8e8;text-align:center;}#mermaid-1777845614241 .edgeLabel rect{opacity:0.5;background-color:#e8e8e8;fill:#e8e8e8;}#mermaid-1777845614241 .cluster rect{fill:#ffffde;stroke:#aaaa33;stroke-width:1px;}#mermaid-1777845614241 .cluster text{fill:#333;}#mermaid-1777845614241 .cluster span{color:#333;}#mermaid-1777845614241 div.mermaidTooltip{position:absolute;text-align:center;max-width:200px;padding:2px;font-family:"trebuchet ms",verdana,arial,sans-serif;font-size:12px;background:hsl(80, 100%, 96.2745098039%);border:1px solid #aaaa33;border-radius:2px;pointer-events:none;z-index:100;}#mermaid-1777845614241 .flowchartTitleText{text-anchor:middle;font-size:18px;fill:#333;}#mermaid-1777845614241 :root{--mermaid-font-family:"trebuchet ms",verdana,arial,sans-serif;}</style><g><marker orient="auto" markerHeight="12" markerWidth="12" markerUnits="userSpaceOnUse" refY="5" refX="10" viewBox="0 0 12 20" class="marker flowchart" id="flowchart-pointEnd"><path style="stroke-width: 1; stroke-dasharray: 1, 0;" class="arrowMarkerPath" d="M 0 0 L 10 5 L 0 10 z"/></marker><marker orient="auto" markerHeight="12" markerWidth="12" markerUnits="userSpaceOnUse" refY="5" refX="0" viewBox="0 0 10 10" class="marker flowchart" id="flowchart-pointStart"><path style="stroke-width: 1; stroke-dasharray: 1, 0;" class="arrowMarkerPath" d="M 0 5 L 10 10 L 10 0 z"/></marker><marker orient="auto" markerHeight="11" markerWidth="11" markerUnits="userSpaceOnUse" refY="5" refX="11" viewBox="0 0 10 10" class="marker flowchart" id="flowchart-circleEnd"><circle style="stroke-width: 1; stroke-dasharray: 1, 0;" class="arrowMarkerPath" r="5" cy="5" cx="5"/></marker><marker orient="auto" markerHeight="11" markerWidth="11" markerUnits="userSpaceOnUse" refY="5" refX="-1" viewBox="0 0 10 10" class="marker flowchart" id="flowchart-circleStart"><circle style="stroke-width: 1; stroke-dasharray: 1, 0;" class="arrowMarkerPath" r="5" cy="5" cx="5"/></marker><marker orient="auto" markerHeight="11" markerWidth="11" markerUnits="userSpaceOnUse" refY="5.2" refX="12" viewBox="0 0 11 11" class="marker cross flowchart" id="flowchart-crossEnd"><path style="stroke-width: 2; stroke-dasharray: 1, 0;" class="arrowMarkerPath" d="M 1,1 l 9,9 M 10,1 l -9,9"/></marker><marker orient="auto" markerHeight="11" markerWidth="11" markerUnits="userSpaceOnUse" refY="5.2" refX="-1" viewBox="0 0 11 11" class="marker cross flowchart" id="flowchart-crossStart"><path style="stroke-width: 2; stroke-dasharray: 1, 0;" class="arrowMarkerPath" d="M 1,1 l 9,9 M 10,1 l -9,9"/></marker><g class="root"><g class="clusters"/><g class="edgePaths"><path marker-end="url(#flowchart-pointEnd)" style="fill:none;" class="edge-thickness-normal edge-pattern-solid flowchart-link LS-A LE-B" id="L-A-B-0" d="M473.625,27.022761767440095L446.2213541666667,33.81063480620008C418.8177083333333,40.59850784496006,364.0104166666667,54.174253922480034,336.6067708333333,66.67046029457335C309.203125,79.16666666666667,309.203125,90.58333333333333,309.203125,96.29166666666667L309.203125,102"/><path marker-end="url(#flowchart-pointEnd)" style="fill:none;" class="edge-thickness-normal edge-pattern-solid flowchart-link LS-B LE-C" id="L-B-C-0" d="M242.99341299019608,135.5L220.42940665849673,141.20833333333334C197.86540032679738,146.91666666666666,152.7373876633987,158.33333333333334,130.17338133169935,169.75C107.609375,181.16666666666666,107.609375,192.58333333333334,107.609375,198.29166666666666L107.609375,204"/><path marker-end="url(#flowchart-pointEnd)" style="fill:none;" class="edge-thickness-normal edge-pattern-solid flowchart-link LS-C LE-D" id="L-C-D-0" d="M107.609375,237.5L107.609375,243.20833333333334C107.609375,248.91666666666666,107.609375,260.3333333333333,107.609375,271.75C107.609375,283.1666666666667,107.609375,294.5833333333333,107.609375,300.2916666666667L107.609375,306"/><path marker-end="url(#flowchart-pointEnd)" style="fill:none;" class="edge-thickness-normal edge-pattern-solid flowchart-link LS-D LE-E" id="L-D-E-0" d="M107.609375,339.5L107.609375,345.2083333333333C107.609375,350.9166666666667,107.609375,362.3333333333333,141.88342205371734,373.75C176.15746910743465,385.1666666666667,244.70556321486927,396.5833333333333,278.9796102685866,402.2916666666667L313.2536573223039,408"/><path marker-end="url(#flowchart-pointEnd)" style="fill:none;" class="edge-thickness-normal edge-pattern-solid flowchart-link LS-E LE-F" id="L-E-F-0" d="M355.75472962622547,441.5L335.9648788551879,447.2083333333333C316.1750280841503,452.9166666666667,276.59532654207516,464.3333333333333,256.8054757710376,475.75C237.015625,487.1666666666667,237.015625,498.5833333333333,237.015625,504.2916666666667L237.015625,510"/><path marker-end="url(#flowchart-pointEnd)" style="fill:none;" class="edge-thickness-normal edge-pattern-solid flowchart-link LS-F LE-G" id="L-F-G-0" d="M237.015625,543.5L237.015625,549.2083333333334C237.015625,554.9166666666666,237.015625,566.3333333333334,237.015625,577.75C237.015625,589.1666666666666,237.015625,600.5833333333334,237.015625,606.2916666666666L237.015625,612"/><path marker-end="url(#flowchart-pointEnd)" style="fill:none;" class="edge-thickness-normal edge-pattern-solid flowchart-link LS-G LE-H" id="L-G-H-0" d="M237.015625,645.5L237.015625,651.2083333333334C237.015625,656.9166666666666,237.015625,668.3333333333334,237.015625,679.75C237.015625,691.1666666666666,237.015625,702.5833333333334,237.015625,708.2916666666666L237.015625,714"/><path marker-end="url(#flowchart-pointEnd)" style="fill:none;" class="edge-thickness-normal edge-pattern-solid flowchart-link LS-H LE-I" id="L-H-I-0" d="M237.015625,747.5L237.015625,753.2083333333334C237.015625,758.9166666666666,237.015625,770.3333333333334,237.015625,781.75C237.015625,793.1666666666666,237.015625,804.5833333333334,237.015625,810.2916666666666L237.015625,816"/><path marker-end="url(#flowchart-pointEnd)" style="fill:none;" class="edge-thickness-normal edge-pattern-solid flowchart-link LS-A LE-J" id="L-A-J-0" d="M551.4015107996323,33.5L563.7737199371936,39.208333333333336C576.1459290747549,44.916666666666664,600.8903473498775,56.333333333333336,613.2625564874387,70.54166666666667C625.634765625,84.75,625.634765625,101.75,625.634765625,118.75C625.634765625,135.75,625.634765625,152.75,625.634765625,169.75C625.634765625,186.75,625.634765625,203.75,625.634765625,220.75C625.634765625,237.75,625.634765625,254.75,625.634765625,268.9583333333333C625.634765625,283.1666666666667,625.634765625,294.5833333333333,625.634765625,300.2916666666667L625.634765625,306"/><path marker-end="url(#flowchart-pointEnd)" style="fill:none;" class="edge-thickness-normal edge-pattern-solid flowchart-link LS-J LE-E" id="L-J-E-0" d="M625.634765625,339.5L625.634765625,345.2083333333333C625.634765625,350.9166666666667,625.634765625,362.3333333333333,601.9272125842525,373.75C578.2196595435049,385.1666666666667,530.8045534620097,396.5833333333333,507.09700042126224,402.2916666666667L483.3894473805147,408"/><path marker-end="url(#flowchart-pointEnd)" style="fill:none;" class="edge-thickness-normal edge-pattern-solid flowchart-link LS-E LE-K" id="L-E-K-0" d="M412.9280886182598,441.5L412.62269103604984,447.2083333333333C412.3172934538399,452.9166666666667,411.7064982894199,464.3333333333333,418.5620946946487,475.75C425.41769109987746,487.1666666666667,439.739679074755,498.5833333333333,446.9006730621937,504.2916666666667L454.0616670496324,510"/><path marker-end="url(#flowchart-pointEnd)" style="fill:none;" class="edge-thickness-normal edge-pattern-solid flowchart-link LS-K LE-E" id="L-K-E-0" d="M495.19064031862746,510L502.0462367238562,504.2916666666667C508.90183312908493,498.5833333333333,522.6130259395425,487.1666666666667,515.7574295343137,475.75C508.90183312908493,464.3333333333333,481.4794475081699,452.9166666666667,467.7682546977124,447.2083333333333L454.0570618872549,441.5"/><path marker-end="url(#flowchart-pointEnd)" style="fill:none;" class="edge-thickness-normal edge-pattern-solid flowchart-link LS-B LE-L" id="L-B-L-0" d="M302.5684263939951,135.5L300.30734751582924,141.20833333333334C298.0462686376634,146.91666666666666,293.5241108813317,158.33333333333334,305.0085465175654,169.75C316.492982153799,181.16666666666666,343.98401118259807,192.58333333333334,357.72952569699754,198.29166666666666L371.4750402113971,204"/><path marker-end="url(#flowchart-pointEnd)" style="fill:none;" class="edge-thickness-normal edge-pattern-solid flowchart-link LS-L LE-B" id="L-L-B-0" d="M438.87275007659315,204L448.096106834661,198.29166666666666C457.3194635927287,192.58333333333334,475.7661771088644,181.16666666666666,464.2817414726307,169.75C452.7973058363971,158.33333333333334,411.38172104779414,146.91666666666666,390.6739286534926,141.20833333333334L369.96613625919116,135.5"/></g><g class="edgeLabels"><g transform="translate(309.203125, 67.75)" class="edgeLabel"><g transform="translate(-33.51953125, -9.25)" class="label"><foreignObject height="18.5" width="67.0390625"><div style="display: inline-block; white-space: nowrap;" xmlns="http://www.w3.org/1999/xhtml"><span class="edgeLabel">Onboards</span></div></foreignObject></g></g><g transform="translate(107.609375, 169.75)" class="edgeLabel"><g transform="translate(-50.421875, -9.25)" class="label"><foreignObject height="18.5" width="100.84375"><div style="display: inline-block; white-space: nowrap;" xmlns="http://www.w3.org/1999/xhtml"><span class="edgeLabel">Registers User</span></div></foreignObject></g></g><g transform="translate(107.609375, 271.75)" class="edgeLabel"><g transform="translate(-57.17578125, -9.25)" class="label"><foreignObject height="18.5" width="114.3515625"><div style="display: inline-block; white-space: nowrap;" xmlns="http://www.w3.org/1999/xhtml"><span class="edgeLabel">Verifies Identity</span></div></foreignObject></g></g><g transform="translate(107.609375, 373.75)" class="edgeLabel"><g transform="translate(-72.58984375, -9.25)" class="label"><foreignObject height="18.5" width="145.1796875"><div style="display: inline-block; white-space: nowrap;" xmlns="http://www.w3.org/1999/xhtml"><span class="edgeLabel">Gets KYC AML Check</span></div></foreignObject></g></g><g transform="translate(237.015625, 475.75)" class="edgeLabel"><g transform="translate(-74.07421875, -9.25)" class="label"><foreignObject height="18.5" width="148.1484375"><div style="display: inline-block; white-space: nowrap;" xmlns="http://www.w3.org/1999/xhtml"><span class="edgeLabel">Validates Documents</span></div></foreignObject></g></g><g transform="translate(237.015625, 577.75)" class="edgeLabel"><g transform="translate(-58.05078125, -9.25)" class="label"><foreignObject height="18.5" width="116.1015625"><div style="display: inline-block; white-space: nowrap;" xmlns="http://www.w3.org/1999/xhtml"><span class="edgeLabel">Creates Account</span></div></foreignObject></g></g><g transform="translate(237.015625, 679.75)" class="edgeLabel"><g transform="translate(-64.07421875, -9.25)" class="label"><foreignObject height="18.5" width="128.1484375"><div style="display: inline-block; white-space: nowrap;" xmlns="http://www.w3.org/1999/xhtml"><span class="edgeLabel">Notifies Customer</span></div></foreignObject></g></g><g transform="translate(237.015625, 781.75)" class="edgeLabel"><g transform="translate(-36.56640625, -9.25)" class="label"><foreignObject height="18.5" width="73.1328125"><div style="display: inline-block; white-space: nowrap;" xmlns="http://www.w3.org/1999/xhtml"><span class="edgeLabel">Logs Audit</span></div></foreignObject></g></g><g transform="translate(625.634765625, 169.75)" class="edgeLabel"><g transform="translate(-16.02734375, -9.25)" class="label"><foreignObject height="18.5" width="32.0546875"><div style="display: inline-block; white-space: nowrap;" xmlns="http://www.w3.org/1999/xhtml"><span class="edgeLabel">Uses</span></div></foreignObject></g></g><g transform="translate(625.634765625, 373.75)" class="edgeLabel"><g transform="translate(-86.15234375, -9.25)" class="label"><foreignObject height="18.5" width="172.3046875"><div style="display: inline-block; white-space: nowrap;" xmlns="http://www.w3.org/1999/xhtml"><span class="edgeLabel">Provides KYC AML Check</span></div></foreignObject></g></g><g transform="translate(411.095703125, 475.75)" class="edgeLabel"><g transform="translate(-16.02734375, -9.25)" class="label"><foreignObject height="18.5" width="32.0546875"><div style="display: inline-block; white-space: nowrap;" xmlns="http://www.w3.org/1999/xhtml"><span class="edgeLabel">Uses</span></div></foreignObject></g></g><g transform="translate(536.32421875, 475.75)" class="edgeLabel"><g transform="translate(-86.47265625, -9.25)" class="label"><foreignObject height="18.5" width="172.9453125"><div style="display: inline-block; white-space: nowrap;" xmlns="http://www.w3.org/1999/xhtml"><span class="edgeLabel">Provides AML KYC Result</span></div></foreignObject></g></g><g transform="translate(289.001953125, 169.75)" class="edgeLabel"><g transform="translate(-89.81640625, -9.25)" class="label"><foreignObject height="18.5" width="179.6328125"><div style="display: inline-block; white-space: nowrap;" xmlns="http://www.w3.org/1999/xhtml"><span class="edgeLabel">Deploys Onboarding Data</span></div></foreignObject></g></g><g transform="translate(494.212890625, 169.75)" class="edgeLabel"><g transform="translate(-95.39453125, -9.25)" class="label"><foreignObject height="18.5" width="190.7890625"><div style="display: inline-block; white-space: nowrap;" xmlns="http://www.w3.org/1999/xhtml"><span class="edgeLabel">Retrieves Onboarding Data</span></div></foreignObject></g></g></g><g class="nodes"><g transform="translate(515.09765625, 16.75)" id="flowchart-A-56" class="node default default"><rect height="33.5" width="82.9453125" y="-16.75" x="-41.47265625" ry="0" rx="0" style="" class="basic label-container"/><g transform="translate(-33.97265625, -9.25)" style="" class="label"><foreignObject height="18.5" width="67.9453125"><div style="display: inline-block; white-space: nowrap;" xmlns="http://www.w3.org/1999/xhtml"><span class="nodeLabel">Customer</span></div></foreignObject></g></g><g transform="translate(309.203125, 118.75)" id="flowchart-B-57" class="node default default"><rect height="33.5" width="153.40625" y="-16.75" x="-76.703125" ry="0" rx="0" style="" class="basic label-container"/><g transform="translate(-69.203125, -9.25)" style="" class="label"><foreignObject height="18.5" width="138.40625"><div style="display: inline-block; white-space: nowrap;" xmlns="http://www.w3.org/1999/xhtml"><span class="nodeLabel">Onboarding Service</span></div></foreignObject></g></g><g transform="translate(107.609375, 220.75)" id="flowchart-C-59" class="node default default"><rect height="33.5" width="198.296875" y="-16.75" x="-99.1484375" ry="0" rx="0" style="" class="basic label-container"/><g transform="translate(-91.6484375, -9.25)" style="" class="label"><foreignObject height="18.5" width="183.296875"><div style="display: inline-block; white-space: nowrap;" xmlns="http://www.w3.org/1999/xhtml"><span class="nodeLabel">User Registration Handler</span></div></foreignObject></g></g><g transform="translate(107.609375, 322.75)" id="flowchart-D-61" class="node default default"><rect height="33.5" width="215.21875" y="-16.75" x="-107.609375" ry="0" rx="0" style="" class="basic label-container"/><g transform="translate(-100.109375, -9.25)" style="" class="label"><foreignObject height="18.5" width="200.21875"><div style="display: inline-block; white-space: nowrap;" xmlns="http://www.w3.org/1999/xhtml"><span class="nodeLabel">Identity Verification Service</span></div></foreignObject></g></g><g transform="translate(413.82421875, 424.75)" id="flowchart-E-63" class="node default default"><rect height="33.5" width="205.8359375" y="-16.75" x="-102.91796875" ry="0" rx="0" style="" class="basic label-container"/><g transform="translate(-95.41796875, -9.25)" style="" class="label"><foreignObject height="18.5" width="190.8359375"><div style="display: inline-block; white-space: nowrap;" xmlns="http://www.w3.org/1999/xhtml"><span class="nodeLabel">KYC AML Screening Service</span></div></foreignObject></g></g><g transform="translate(237.015625, 526.75)" id="flowchart-F-65" class="node default default"><rect height="33.5" width="239.2421875" y="-16.75" x="-119.62109375" ry="0" rx="0" style="" class="basic label-container"/><g transform="translate(-112.12109375, -9.25)" style="" class="label"><foreignObject height="18.5" width="224.2421875"><div style="display: inline-block; white-space: nowrap;" xmlns="http://www.w3.org/1999/xhtml"><span class="nodeLabel">Document Management Service</span></div></foreignObject></g></g><g transform="translate(237.015625, 628.75)" id="flowchart-G-67" class="node default default"><rect height="33.5" width="163.765625" y="-16.75" x="-81.8828125" ry="0" rx="0" style="" class="basic label-container"/><g transform="translate(-74.3828125, -9.25)" style="" class="label"><foreignObject height="18.5" width="148.765625"><div style="display: inline-block; white-space: nowrap;" xmlns="http://www.w3.org/1999/xhtml"><span class="nodeLabel">Core Banking System</span></div></foreignObject></g></g><g transform="translate(237.015625, 730.75)" id="flowchart-H-69" class="node default default"><rect height="33.5" width="156.25" y="-16.75" x="-78.125" ry="0" rx="0" style="" class="basic label-container"/><g transform="translate(-70.625, -9.25)" style="" class="label"><foreignObject height="18.5" width="141.25"><div style="display: inline-block; white-space: nowrap;" xmlns="http://www.w3.org/1999/xhtml"><span class="nodeLabel">Notification Service</span></div></foreignObject></g></g><g transform="translate(237.015625, 832.75)" id="flowchart-I-71" class="node default default"><rect height="33.5" width="199.296875" y="-16.75" x="-99.6484375" ry="0" rx="0" style="" class="basic label-container"/><g transform="translate(-92.1484375, -9.25)" style="" class="label"><foreignObject height="18.5" width="184.296875"><div style="display: inline-block; white-space: nowrap;" xmlns="http://www.w3.org/1999/xhtml"><span class="nodeLabel">Audit and Logging Service</span></div></foreignObject></g></g><g transform="translate(625.634765625, 322.75)" id="flowchart-J-73" class="node default default"><rect height="33.5" width="135.03125" y="-16.75" x="-67.515625" ry="0" rx="0" style="" class="basic label-container"/><g transform="translate(-60.015625, -9.25)" style="" class="label"><foreignObject height="18.5" width="120.03125"><div style="display: inline-block; white-space: nowrap;" xmlns="http://www.w3.org/1999/xhtml"><span class="nodeLabel">Identity Provider</span></div></foreignObject></g></g><g transform="translate(475.07421875, 526.75)" id="flowchart-K-77" class="node default default"><rect height="33.5" width="136.875" y="-16.75" x="-68.4375" ry="0" rx="0" style="" class="basic label-container"/><g transform="translate(-60.9375, -9.25)" style="" class="label"><foreignObject height="18.5" width="121.875"><div style="display: inline-block; white-space: nowrap;" xmlns="http://www.w3.org/1999/xhtml"><span class="nodeLabel">AML KYC Vendors</span></div></foreignObject></g></g><g transform="translate(411.80859375, 220.75)" id="flowchart-L-81" class="node default default"><rect height="33.5" width="106.796875" y="-16.75" x="-53.3984375" ry="0" rx="0" style="" class="basic label-container"/><g transform="translate(-45.8984375, -9.25)" style="" class="label"><foreignObject height="18.5" width="91.796875"><div style="display: inline-block; white-space: nowrap;" xmlns="http://www.w3.org/1999/xhtml"><span class="nodeLabel">Data Storage</span></div></foreignObject></g></g></g></g></g></svg>